# xmcd
# 
# Track frame offsets:
#     150
#     23312
#     35573
#     53373
#     68853
#     98237
#     120756
#     144478
#     167315
#     189072
# 
# Disc length: 3206
# 
# Revision: 0
# Processed by: cddbd v1.5.2PL0 Copyright (c) Steve Scherf et al.
# Submitted via: BonkEnc v1.0.6
# 
DISCID=670c840a
DTITLE=Canned Heat and John Lee Hooker - Hooker 'n Heat
DYEAR=1981
DGENRE=Blues
TTITLE0=Hell Hound
TTITLE1=Strut My Stuff
TTITLE2=Open Up Your Back Door
TTITLE3=House of Blue Lights
TTITLE4=It Hurts Me Too
TTITLE5=Wrapped Up
TTITLE6=Medley: Let's Work Together/Going Up the Country
TTITLE7=Tease Me Baby
TTITLE8=Serves Me Right To Suffer
TTITLE9=Nobody Else But You
EXTD=YEAR: 1981
EXTT0=
EXTT1=
EXTT2=
EXTT3=
EXTT4=
EXTT5=
EXTT6=
EXTT7=
EXTT8=
EXTT9=
PLAYORDER=
